<svg width="58" height="31" viewBox="0 0 58 31" fill="none" xmlns="http://www.w3.org/2000/svg">
<path d="M28.992 18.7644C29.5744 16.3566 30.8061 14.1546 32.5532 12.3982C34.3002 10.6419 36.4955 9.39837 38.9002 8.80312C41.3049 8.20788 43.8268 8.28368 46.1914 9.02229C48.556 9.76089 50.6727 11.134 52.3111 12.9921C53.9494 14.8503 55.0467 17.1222 55.4834 19.5607C55.9201 21.9992 55.6795 24.5107 54.7879 26.822" stroke="white" stroke-width="3" stroke-linecap="round"/>
<path d="M26.7202 7.72253C24.8894 5.23303 22.2621 3.44462 19.2746 2.65427C16.2871 1.86391 13.1191 2.11916 10.2967 3.37761C7.47431 4.63607 5.16723 6.82202 3.75854 9.57254C2.34986 12.3231 1.92431 15.4727 2.55257 18.4984C3.18082 21.5241 4.82508 24.2439 7.21233 26.2063C9.59958 28.1686 12.5862 29.2554 15.6763 29.2862C18.7664 29.317 21.7741 28.2899 24.2 26.3755C26.6259 24.4612 28.324 21.7746 29.0124 18.762" stroke="white" stroke-width="3" stroke-linecap="round"/>
</svg>
