<svg width="19" height="23" viewBox="0 0 19 23" fill="none" xmlns="http://www.w3.org/2000/svg">
<path d="M9.50102 23C9.25086 23.0015 9.00627 22.9106 8.79993 22.7394C8.59359 22.5681 8.43533 22.3248 8.34631 22.0418L6.37528 15.8372C6.33536 15.7122 6.27429 15.5987 6.19599 15.5039C6.11769 15.4091 6.0239 15.3352 5.92061 15.2868L0.79366 12.8991C0.560116 12.7906 0.359241 12.5989 0.217547 12.3493C0.0758528 12.0998 0 11.8041 0 11.5013C0 11.1984 0.0758528 10.9027 0.217547 10.6532C0.359241 10.4036 0.560116 10.2119 0.79366 10.1034L5.91913 7.71745C6.02241 7.66913 6.11621 7.5952 6.19451 7.50042C6.27281 7.40564 6.33387 7.29209 6.37379 7.16707L8.34631 0.960747C8.43594 0.678037 8.59429 0.434871 8.80044 0.263346C9.00659 0.0918215 9.25087 0 9.50102 0C9.75118 0 9.99545 0.0918215 10.2016 0.263346C10.4078 0.434871 10.5661 0.678037 10.6557 0.960747L12.6268 7.16527C12.6667 7.2903 12.7278 7.40384 12.8061 7.49862C12.8843 7.5934 12.9781 7.66733 13.0814 7.71565L18.1772 10.0891C18.4203 10.1981 18.6297 10.3952 18.7769 10.6535C18.9241 10.9117 19.002 11.2186 19 11.5324C18.9962 11.8299 18.9187 12.1193 18.7776 12.3629C18.6365 12.6066 18.4382 12.7934 18.2084 12.8991L13.0829 15.2851C12.9796 15.3334 12.8858 15.4073 12.8075 15.5021C12.7292 15.5969 12.6682 15.7104 12.6283 15.8354L10.6557 22.0418C10.5667 22.3248 10.4085 22.5681 10.2021 22.7394C9.99578 22.9106 9.75119 23.0015 9.50102 23Z" fill="white"/>
</svg>
