<svg width="42" height="35" viewBox="0 0 42 35" fill="none" xmlns="http://www.w3.org/2000/svg">
<path d="M41 1.2212C39 2.2012 37.04 2.5992 35 3.2012C32.758 0.671199 29.434 0.531199 26.24 1.7272C23.046 2.9232 20.954 5.8472 21 9.2012V11.2012C14.51 11.3672 8.73 8.4112 5 3.2012C5 3.2012 -3.364 18.0672 13 25.2012C9.256 27.6952 5.522 29.3772 1 29.2012C7.616 32.8072 14.826 34.0472 21.068 32.2352C28.228 30.1552 34.112 24.7892 36.37 16.7512C37.0436 14.3065 37.378 11.7809 37.364 9.2452C37.36 8.7472 40.384 3.7012 41 1.2192V1.2212Z" stroke="white" stroke-width="2" stroke-linecap="round" stroke-linejoin="round"/>
</svg>
